<svg xmlns="http://www.w3.org/2000/svg" viewBox="0 0 75 46" fill="none">
  <path fill="#FFFFFF" d="M56.85 41.21a1.94 1.94 0 0 1-.54.12l-3.74.22h-.06a1.98 1.98 0 0 1-1.07-.26l-2.78 2.57a6.26 6.26 0 0 1-4.25 1.64H30.6a6.26 6.26 0 0 1-4.25-1.64l-2.67-2.47c-1.68.74-3.32 1.1-4.81 1.1-3.4 0-7.27-2.5-7.28-2.5A7.89 7.89 0 0 1 8.13 35l-2.93-.39c-2.01-.23-3.3-1.54-3.55-2.9L.03 22.77c-.05-.26-.04-.53.02-.78.45-1.96 2.11-3.86 4.43-5.4a34.15 34.15 0 0 1 9.88-4.18h.01a3.44 3.44 0 0 0 1.55-.8l4.77-4.42-.23-.6a2.24 2.24 0 0 1 .17-1.94 2.2 2.2 0 0 1 1.62-1.06h.03s1.41-.14 2.5-.18l1.38-1.27A6.26 6.26 0 0 1 30.4.5h14.2c1.6 0 3.12.6 4.24 1.64L50.2 3.4a23.88 23.88 0 0 1 2.45.06c.31.02.62.11.9.26a2.22 2.22 0 0 1 1.08 1.47c.07.3.07.63.01.93l-.24 1.16 4.68 4.32c.43.4.96.68 1.55.81h.02c2.9.72 6.91 2.21 9.87 4.18 2.32 1.54 3.98 3.44 4.43 5.4a1.95 1.95 0 0 1 .02.78l-1.62 8.94c-.24 1.36-1.54 2.67-3.55 2.9l-2.37.32.16 4.4a2.17 2.17 0 0 1-.81 1.81c-.2.15-.4.27-.6.35l-.03.01s-2.11.77-2.82 1.05c-.23.1-1.28.36-1.77.24l-3.6-.88a2.05 2.05 0 0 1-1.11-.7Z"/>
  <path fill="#000000" d="M44.41 44.53H30.6a5.31 5.31 0 0 1-3.6-1.38l-7.34-6.8a4.44 4.44 0 0 0-2.52-1.12h-.01l-11.8-1.58c-1.52-.17-2.55-1.09-2.73-2.1L.97 22.6a.96.96 0 0 1 .01-.4c.4-1.75 1.94-3.42 4.03-4.8a33 33 0 0 1 9.57-4.04 4.38 4.38 0 0 0 1.99-1.04L26.8 2.85a5.3 5.3 0 0 1 3.6-1.38h14.2a5.31 5.31 0 0 1 3.6 1.38 17774.2 17774.2 0 0 0 10.23 9.47 4.39 4.39 0 0 0 1.98 1.03h.01c2.81.7 6.7 2.14 9.57 4.05 2.09 1.38 3.62 3.05 4.03 4.8a1 1 0 0 1 0 .4l-1.6 8.94c-.19 1.02-1.22 1.94-2.73 2.11l-11.8 1.57h-.02c-.95.12-1.84.51-2.52 1.14l-7.34 6.79a5.31 5.31 0 0 1-3.6 1.39Z"/>
  <path fill="#005CEC" d="M44.41 43.57H30.6a4.36 4.36 0 0 1-2.96-1.13l-7.34-6.8a5.4 5.4 0 0 0-3.05-1.37L5.43 32.69c-1.02-.1-1.78-.64-1.9-1.32L1.9 22.43c.9-3.9 8.36-7.01 12.9-8.14a5.34 5.34 0 0 0 2.4-1.26c2.3-2.11 7.78-7.2 10.24-9.47a4.35 4.35 0 0 1 2.95-1.13h14.2c1.1 0 2.17.4 2.95 1.13l10.24 9.47a5.35 5.35 0 0 0 2.4 1.26c4.55 1.13 12 4.24 12.9 8.14l-1.61 8.94c-.13.68-.89 1.21-1.9 1.32l-11.82 1.58a5.4 5.4 0 0 0-3.05 1.37l-7.34 6.8a4.35 4.35 0 0 1-2.95 1.13Z"/>
  <path fill="#0085FA" d="m2.02 23.02-.1-.6c.9-3.9 8.35-7 12.88-8.13a5.34 5.34 0 0 0 2.41-1.26c2.3-2.11 7.78-7.2 10.24-9.46a4.35 4.35 0 0 1 2.95-1.14h14.2c1.1 0 2.17.4 2.95 1.14l10.24 9.46a5.35 5.35 0 0 0 2.4 1.27c4.55 1.12 12 4.23 12.9 8.13l-.1.6c-1.28-3.73-8.4-6.68-12.8-7.77A5.35 5.35 0 0 1 57.8 14L47.55 4.53A4.36 4.36 0 0 0 44.6 3.4H30.4c-1.1 0-2.17.4-2.95 1.13A15179.73 15179.73 0 0 1 17.2 14a5.34 5.34 0 0 1-2.4 1.26C10.4 16.35 3.28 19.3 2 23.02Z"/>
  <path fill="#CD881C" d="M44.41 43.56H30.58c-1.1 0-2.17-.4-2.95-1.13l-9.6-8.88a3.83 3.83 0 0 1-1.08-1.73l-.54-1.86h42.17l-.54 1.86a3.77 3.77 0 0 1-1.08 1.73l-9.6 8.88a4.35 4.35 0 0 1-2.95 1.13Z"/>
  <path fill="#FBD766" d="M27.57 3.45a3.8 3.8 0 0 1 2.59-1.02h14.68c.96 0 1.88.36 2.58 1.02 2.32 2.14 7.7 7.13 10.15 9.38a3.88 3.88 0 0 1 1.24 2.85v12.93c0 1.09-.45 2.12-1.24 2.85l-10.15 9.4a3.8 3.8 0 0 1-2.58 1H30.16a3.83 3.83 0 0 1-2.59-1l-10.14-9.4a3.88 3.88 0 0 1-1.24-2.85V15.68c0-1.09.45-2.12 1.24-2.85l10.14-9.38Z"/>
  <path fill="#005CEC" d="M28.9 5.97a3.22 3.22 0 0 1 2.23-.92h12.73a3.2 3.2 0 0 1 2.24.92l8.8 8.5a3.59 3.59 0 0 1 1.08 2.6v11.7c0 1-.39 1.93-1.08 2.6l-8.8 8.5a3.22 3.22 0 0 1-2.24.92H31.13a3.25 3.25 0 0 1-2.24-.92l-8.8-8.5a3.6 3.6 0 0 1-1.07-2.6v-11.7c0-1 .4-1.93 1.08-2.6l8.8-8.5Z"/>
  <path fill="#CD881C" d="m10.12 19.14 1.57.63c.24.1.46.25.64.44l1.4 1.48c.32.32.51.75.55 1.21l.36 3.57c.04.41-.04.82-.23 1.17l-1.27 2.33a1.7 1.7 0 0 1-1.32.9l-2.1.22c-.22.03-.45 0-.68-.07l-1.08-.35 2.16-11.53Z"/>
  <path fill="#FFEEBB" d="m17.4 12.85 10.05-9.29a4.34 4.34 0 0 1 2.95-1.13h14.2a4.35 4.35 0 0 1 2.95 1.13l10.04 9.29c.78.72 1.22 1.7 1.22 2.74v13.13a3.7 3.7 0 0 1-.92 2.42v-14.8a3.7 3.7 0 0 0-1.23-2.74l-9.5-8.79a4.35 4.35 0 0 0-2.94-1.13H30.79c-1.12 0-2.18.87-2.96 1.6l-9.5 8.32a3.72 3.72 0 0 0-1.21 2.73v14.81a3.68 3.68 0 0 1-.93-2.42V15.58c0-1.03.43-2 1.22-2.74Z"/>
  <path fill="#CD881C" d="M45.09 4.79c.09 0 .18.03.24.1l10.73 9.83c.08.06.12.16.12.26v15.21a.36.36 0 0 1-.12.26l-10.73 9.83a.33.33 0 0 1-.24.1H29.9a.33.33 0 0 1-.24-.1l-10.73-9.83a.33.33 0 0 1-.12-.26V14.98c0-.1.04-.2.12-.26l10.73-9.83a.33.33 0 0 1 .24-.1h15.2ZM19.53 15.13v14.9l10.51 9.63h14.9l10.52-9.63v-14.9l-10.5-9.62h-14.9l-10.52 9.62Z"/>
  <path fill="#FBD766" d="M6.02 20.17c.31-.52.84-.86 1.44-.93l1.76-.2a1.9 1.9 0 0 1 1.58.57l1.88 1.94c.29.3.47.7.53 1.11l.41 3.47a2 2 0 0 1-.25 1.22l-1.35 2.27c-.3.52-.83.86-1.43.93l-1.76.2a1.9 1.9 0 0 1-1.59-.57l-1.87-1.94a1.92 1.92 0 0 1-.53-1.11l-.42-3.46c-.05-.43.04-.86.26-1.23l1.34-2.27Z"/>
  <path fill="#CD881C" d="m64.88 19.14-1.57.63c-.24.1-.46.25-.64.44l-1.4 1.48a2.05 2.05 0 0 0-.55 1.21l-.36 3.57c-.04.41.04.82.23 1.17l1.27 2.33c.28.52.77.85 1.32.9l2.1.22c.22.03.46 0 .68-.07l1.08-.35-2.16-11.53Z"/>
  <path fill="#FBD766" d="M68.97 20.17a1.92 1.92 0 0 0-1.43-.93l-1.76-.2a1.9 1.9 0 0 0-1.58.57l-1.88 1.94a1.93 1.93 0 0 0-.53 1.11l-.42 3.47c-.05.42.04.85.26 1.22l1.34 2.27c.31.52.84.86 1.44.93l1.76.2a1.9 1.9 0 0 0 1.58-.57l1.88-1.94c.3-.3.48-.7.53-1.11l.41-3.46a1.95 1.95 0 0 0-.25-1.23l-1.35-2.27Z"/>
  <path fill="#FFEEBB" d="m70.31 22.43-1.38-2.33a1.7 1.7 0 0 0-1.27-.85l-1.99-.22a1.73 1.73 0 0 0-1.44.54l-.52.54.77-.44a.84.84 0 0 1 .53-.1l2.5.33a.85.85 0 0 1 .61.4l1.68 2.6a1 1 0 0 1 .15.64l-.35 3.88a1.03 1.03 0 0 1-.22.55L67.4 30.5a1.87 1.87 0 0 0 .32-.27l1.9-1.96c.3-.31.5-.73.55-1.18l.4-3.38a2.03 2.03 0 0 0-.25-1.27Zm-65.64-.06 1.37-2.33c.28-.47.75-.78 1.27-.84l1.98-.22a1.73 1.73 0 0 1 1.44.54l.52.54-.77-.44a.84.84 0 0 0-.53-.1l-2.5.32a.85.85 0 0 0-.6.4l-1.67 2.61a.97.97 0 0 0-.15.63l.35 3.89c.02.2.1.4.22.55l1.99 2.52a1.87 1.87 0 0 1-.32-.27l-1.9-1.96a2.06 2.06 0 0 1-.55-1.18l-.41-3.39a2.03 2.03 0 0 1 .26-1.27Z"/>
  <path fill="#000000" d="M34.77 7.1a2.96 2.96 0 0 1 2.93-2.84c1.68 0 3.2 1.45 3.38 3.3.02.2.02.42 0 .62a8.57 8.57 0 0 1 4.43-2.96c2.17-.7 4.72-.86 7.07-.7a1.24 1.24 0 0 1 .9.5 1.27 1.27 0 0 1 .23 1.01l-.84 4.1a1.26 1.26 0 0 1-.56.8 1.23 1.23 0 0 1-.96.16l-.05-.02a1.25 1.25 0 0 1 .7.84l2.08 8.34a1.25 1.25 0 0 1-.18 1.03 1.22 1.22 0 0 1-.9.53c-4.4.43-9.39-.65-11.78-4.28l.2 2.96a1.25 1.25 0 0 1-1.25 1.35l-4.7-.07a1.24 1.24 0 0 1-1.15-.85 1.26 1.26 0 0 1-.06-.5v-.01l.06-.68a8.02 8.02 0 0 1-4.06 1.87c-2.35.44-5.19.34-7.58.19a1.24 1.24 0 0 1-1.14-1.02 1.27 1.27 0 0 1 .01-.55l2.67-10.47-.5.07a1.23 1.23 0 0 1-1.34-.78l-1.02-2.69a1.27 1.27 0 0 1 .1-1.1 1.24 1.24 0 0 1 .9-.6h.01c2.18-.25 6.44-.4 9.43.6a6.29 6.29 0 0 1 2.97 1.85Z"/>
  <path fill="#000000" d="M23.28 7.3c2.06-.24 29.49 3.12 29.49 3.12l-.8 2.02c-.04.15-.88 1.43-.82 1.68l2.78 7.12s-.9 1.56-1 1.7a1.16 1.16 0 0 1-.84.5c-4.14.4-8.45-.08-10.7-3.5 0 0 .04.86-.01 1.01-.06.15-.38 2.02-.49 2.14a1.14 1.14 0 0 1-.87.37l-4.41-.07a1.17 1.17 0 0 1-1.09-.8 1.2 1.2 0 0 1-.05-.48l.05-.63a7.5 7.5 0 0 1-3.81 1.75c-2.22.41-4.88.32-7.14.18a1.17 1.17 0 0 1-.87-.49c-.1-.14-.95-1.66-.95-1.66s2.29-7.92 2.2-8.17l-1.62-4.2a1.2 1.2 0 0 1 .09-1.03 1.17 1.17 0 0 1 .86-.56Z"/>
  <path fill="#000000" d="M37.9 36.66c5.53 0 10.02-4.54 10.02-10.13 0-5.6-4.5-10.13-10.03-10.13-5.53 0-10.02 4.53-10.02 10.13s4.49 10.13 10.02 10.13Z"/>
  <path fill="url(#a)" d="m25.5 8.57-3.02 11.9a.29.29 0 0 0 .26.35c2.32.15 5.07.25 7.35-.18 1.6-.3 3.32-.95 4.17-2.35a3.3 3.3 0 0 0-.6-4.25 6 6 0 0 0-1.36-.94c1.29-.83 2.3-1.92 2.38-3.25.28-4.82-8.72-4.64-12.2-4.23a.28.28 0 0 0-.2.13.3.3 0 0 0-.03.26l1.02 2.67a.29.29 0 0 0 .31.18l1.92-.29ZM52.51 5.5c-5.58-.4-12.3 1.15-11.73 7.75.55 6.42 6.85 8.13 12.13 7.61a.27.27 0 0 0 .2-.12.29.29 0 0 0 .05-.23l-2.1-8.36a.28.28 0 0 0-.1-.15.27.27 0 0 0-.17-.06h-2.96a.27.27 0 0 0-.12.02.3.3 0 0 0-.17.31l.52 3.37c-1.56-.55-3.03-1.6-3.02-3.21 0-2.8 3.64-3 6.55-2.27h.11a.26.26 0 0 0 .1-.04.28.28 0 0 0 .13-.18l.84-4.1a.28.28 0 0 0 0-.11.27.27 0 0 0-.05-.11.28.28 0 0 0-.2-.12ZM37.7 5.23c1.22 0 2.3 1.08 2.43 2.42.12 1.33-.76 2.41-1.98 2.41-1.21 0-2.3-1.08-2.43-2.42-.12-1.33.76-2.41 1.98-2.41Zm-1.65 5.6-.84 9.66a.29.29 0 0 0 .17.29.28.28 0 0 0 .11.03l4.7.06a.3.3 0 0 0 .1-.02.28.28 0 0 0 .1-.07.28.28 0 0 0 .08-.21l-.62-8.85a.29.29 0 0 0-.06-.16.28.28 0 0 0-.15-.1l-3.23-.88a.28.28 0 0 0-.23.04.28.28 0 0 0-.09.1.29.29 0 0 0-.04.11Zm-8.24 6.83.57-3.25c.73.17 2.38.7 2.3 1.6-.12 1.13-1.97 1.54-2.87 1.65Zm1.03-5.57.64-3.49c.94.23 1.66.7 1.61 1.58-.05.97-1.3 1.61-2.26 1.9Z"/>
  <path fill="#FF93B3" d="m35.28 19.67.78-8.84a.29.29 0 0 1 .03-.12.28.28 0 0 1 .2-.14.28.28 0 0 1 .12 0l3.24.9-2.68-.41c-.37-.06-.53.04-.57.38-.16 1.45-1.1 8.2-1.12 8.23ZM33.16 6.94C30.4 5.38 25.42 5.71 23 6c-.34.04-.36.16-.3.5l.31 1.5-.76-2a.3.3 0 0 1 .02-.25.28.28 0 0 1 .21-.13c2.54-.3 8.02-.48 10.68 1.32Zm-7.52 1.08.65-.1-3.67 11.99L25.64 8Zm7.3 5.45a5.66 5.66 0 0 0-.28-.14l.02-.02.25.16Zm3.14-5.28c.2.78-.44-.48-.34-1.16.15-1.04.94-1.8 1.96-1.8.49 0 .95.17 1.34.46-.3-.15-.72-.22-1.06-.22-1.22 0-2.24 1.35-1.9 2.72Zm-5.4 7.83c.19 1.19-1.54 1.9-2.87 1.64l.41-.06c.96-.18 2.36-.6 2.45-1.58Zm.41-5.84c.1.98-.84 1.95-2.25 1.9l.43-.15c.86-.34 1.78-.93 1.82-1.75ZM52.51 5.5c-4.27 0-12.26 1.12-11.36 8.22.36 2.8 1.9 4.36 3.77 5.57-2.06-1.2-3.88-3.06-4.14-6.04-.57-6.6 6.15-8.16 11.73-7.75Zm-4.45 10.14-.52-3.37a.3.3 0 0 1 .17-.3.27.27 0 0 1 .12-.03h2.96l-2.63.24c-.21.02-.36.16-.33.43l.23 3.03Z"/>
  <path fill="#BD1A33" d="m53.02 19.94.14.56a.3.3 0 0 1 0 .12.3.3 0 0 1-.14.2.28.28 0 0 1-.11.03c-5.28.52-11.58-1.19-12.13-7.61a9.57 9.57 0 0 1-.03-.56c.55 6.43 6.8 8.13 12.02 7.62a.27.27 0 0 0 .2-.12.29.29 0 0 0 .05-.24ZM23.27 8.68l-.2-.51a.32.32 0 0 0 .13.15.28.28 0 0 0 .18.04l2.26-.34-.14.55-1.92.3a.29.29 0 0 1-.3-.19Zm-.65 11.23a.3.3 0 0 0 .05.24.3.3 0 0 0 .09.08.3.3 0 0 0 .12.04c2.3.15 5.03.25 7.29-.18 1.58-.3 3.29-.95 4.12-2.35.26-.43.42-.9.48-1.35a3.47 3.47 0 0 1-.52 1.9c-.84 1.4-2.56 2.05-4.16 2.35-2.28.43-5.03.33-7.35.18a.28.28 0 0 1-.26-.23.3.3 0 0 1 0-.13l.14-.55Zm9.68-6.8c-.17-.09-.32-.32.05-.56 1.2-.78 2.15-1.79 2.33-3.01v.3c-.08 1.35-1.1 2.43-2.38 3.26ZM29.48 8.6l.08-.55c.93.23 1.65.7 1.6 1.58 0 .15-.03.28-.07.4-.03-.79-.73-1.21-1.61-1.43Zm-1.1 5.81.1-.55c.72.16 2.35.7 2.26 1.6 0 .12-.04.23-.08.33-.18-.77-1.61-1.23-2.28-1.38Zm23.2-4.26c-2.9-.74-6.54-.53-6.55 2.27 0 .26.04.51.11.74a3.53 3.53 0 0 1-.18-1.3c0-2.8 3.85-2.9 6.72-2.17h.12a.27.27 0 0 0 .18-.12.3.3 0 0 0 .05-.1l-.1.46a.3.3 0 0 1-.12.18.27.27 0 0 1-.23.04Zm-16.32 9.79a.3.3 0 0 0 .07.21.27.27 0 0 0 .2.1l4.62.07a.25.25 0 0 0 .11-.02.28.28 0 0 0 .1-.07.29.29 0 0 0 .07-.21l.04.55a.28.28 0 0 1-.07.21.27.27 0 0 1-.22.1l-4.69-.08a.28.28 0 0 1-.2-.09.3.3 0 0 1-.08-.22l.05-.55Zm4.85-12.45.02.15c.12 1.34-.76 2.42-1.98 2.42s-2.3-1.08-2.43-2.42a2.67 2.67 0 0 1 .02-.61v.06c.13 1.34 1.2 2.41 2.4 2.41 1.09 0 1.9-.87 1.97-2.01Z"/>
  <path fill="#000000" d="M58.34 22.17c.37-.06.72.03 1 .27.28.23.43.52.45.87.2-.29.5-.5.87-.54l4-.53c.35-.04.68.05.96.29.27.24.42.55.44.91l.57 16.04a1.23 1.23 0 0 1-.46 1.02 1.2 1.2 0 0 1-1.07.25l-4.1-1a1.24 1.24 0 0 1-.95-1.17l-.03-.83c0 .67-.56 1.27-1.22 1.3l-4.25.26a1.2 1.2 0 0 1-.94-.35 1.19 1.19 0 0 1-.36-.93l.02-.83.01-.53c-1.47 1.3-3.79 1.77-6.13 1.6-1.34-.1-2.7-.35-3.74-.7a1.25 1.25 0 0 1-.63-.47l-2.74.84c-.34.1-.66.07-.96-.1-.3-.16-.5-.4-.6-.74l-.35-1.24H36.4l-.4 1.3c-.1.32-.28.56-.57.72a1.26 1.26 0 0 1-.98.1l-3.07-.95-.03.21a1.24 1.24 0 0 1-1.25 1.07l-6.32-.09a1.22 1.22 0 0 1-.47-.1 1 1 0 0 1-.2.16c-4.19 2.48-8.32 2.7-11.03 1-1.88-1.19-3.14-3.3-3.3-6.34a17.2 17.2 0 0 1 .31-4.26c.52-2.12 1.63-3.9 3.02-5.16a8.69 8.69 0 0 1 6.43-2.15c1.41.09 3.29.59 4.54 1.33l.03.02c.18-.23.48-.54 1.1-.48l4.25.39a1.2 1.2 0 0 1 .85.45c.22.27.31.59.28.93l-.72 6.89 1.8-.08c.22 0 .43.04.62.13l2.99-8.03v-.01c.19-.5.64-.81 1.17-.81h3.67c.52 0 .97.3 1.16.8l3.07 8.04c.1-.31.3-.56.6-.72.1-.07.23-.11.35-.14a4.49 4.49 0 0 1-.94-2.63 63.96 63.96 0 0 1 0-.94v-.32c.15-2.3 1.62-3.47 3.67-3.94 1.7-.39 3.84-.25 5.68 0 .58.08 1.02.56 1.07 1.13.18-.27.47-.46.8-.52l3.76-.69Z"/>
  <path fill="#000000" d="m43.55 25.11 22.28 15.6s-2.05.73-2.85 1.05c-.16.06-.86.29-1.2.2l-3.6-.87a1.09 1.09 0 0 1-.83-1.04l-.03-.72c0 .58-.49 1.1-1.07 1.14l-3.74.23a1.05 1.05 0 0 1-.82-.31c-.23-.23-.33-.5-.32-.82l.02-.73v-.47c-1.28 1.14-3.33 1.56-5.38 1.4-1.18-.08-2.38-.3-3.29-.6a1.1 1.1 0 0 1-.56-.42l-2.4.74c-.3.1-.58.06-.85-.08a1.07 1.07 0 0 1-.52-.65 49.11 49.11 0 0 1-.31-1.1h-1.52l-.35 1.14a1.07 1.07 0 0 1-.5.64 1.1 1.1 0 0 1-.87.1l-2.7-.85-.03.19a1.1 1.1 0 0 1-1.1.94l-5.55-.08a1.07 1.07 0 0 1-.41-.08c-.06.05-.12.1-.18.13a12 12 0 0 1-6.01 1.85c-3.17 0-6.78-2.36-6.78-2.36l17.48-15.72s.76 2.56.88 2.87c.1.3.16.51.13.81l-.63 6.06 11.84.03 1.77-8.22Z"/>
  <path fill="#354966" d="m65.32 39.81-4.1-1a.29.29 0 0 1-.21-.27l-.04-.83 1.27-4.25-4.07-.3.83 3.81.01.83a.29.29 0 0 1-.27.3l-4.25.25a.28.28 0 0 1-.21-.09c-.06-.05-.08-.13-.07-.21l.01-.83c4.03-9.13 7.84-8.63 11.42 1.48l.04.82a.28.28 0 0 1-.1.23.28.28 0 0 1-.26.06Z"/>
  <path fill="#8397B5" d="m65.17 38.5-.53-14.78-3.63.48.15 4.74h-2.72l-.06-5.29-3.4.62-.29 12.8 3.84-.24-.05-4.91 2.78.2.17 5.47 3.74.9Z"/>
  <path fill="url(#b)" d="m65.29 38.98-4.1-1a.29.29 0 0 1-.22-.27l-.16-5.18-1.86-.13.05 4.57a.29.29 0 0 1-.27.3l-4.2.25a.28.28 0 0 1-.22-.08.28.28 0 0 1-.08-.22l.3-13.13c0-.14.1-.26.23-.28l3.74-.69a.27.27 0 0 1 .24.06.29.29 0 0 1 .1.22l.06 5.05h1.78l-.14-4.43a.29.29 0 0 1 .25-.3l3.99-.52c.08 0 .16.01.22.07a.28.28 0 0 1 .1.2l.54 15.22a.28.28 0 0 1-.1.23.28.28 0 0 1-.25.06Z"/>
  <path fill="url(#c)" d="m65.17 38.5-.53-14.78-3.63.48.15 4.74h-2.72l-.06-5.29-3.4.62-.29 12.8 3.84-.24-.05-4.91 2.78.2.17 5.47 3.74.9Z"/>
  <path fill="#FFFFFF" d="m58.44 28.95 2.89.16L61 24.2l.15 4.75h-2.72Z"/>
  <path fill="#D2DDEE" d="m58.52 35.48.01 1.35-3.83.23.04-1.95c1.3.11 2.57.23 3.78.37Zm6.57.96.08 2.06-3.74-.92-.05-1.74c1.33.18 2.57.38 3.71.6Z"/>
  <path fill="url(#d)" d="m61.44 37.59 3.73.9-.53-14.77.36-.45a.28.28 0 0 1 .1.2l.54 15.22a.28.28 0 0 1-.1.24.28.28 0 0 1-.25.05l-4.1-1a.28.28 0 0 1-.16-.1l.4-.3Z"/>
  <path fill="#FFFFFF" d="m54.7 37.06 3.84-.23-.06-4.91 2.78.2-.45.41-1.86-.13.05 4.57a.29.29 0 0 1-.27.3l-4.2.25a.28.28 0 0 1-.22-.08l.39-.38Z"/>
  <path fill="#8397B5" d="m58.44 28.95-.06-5.3.36-.47a.29.29 0 0 1 .1.22l.06 5.05"/>
  <path fill="url(#e)" d="m61 24.2.16 4.75h-2.72l.46-.5h1.78l-.14-4.42a.29.29 0 0 1 .08-.22l.39.39Z"/>
  <path fill="#FFFFFF" d="m65.17 38.5-.53-14.78.27 14.46-3.48-.6 3.74.92Zm-6.7-6.58-.15 4.7-3.63.44 3.84-.23-.05-4.91Z"/>
  <path fill="#91A4C3" d="m58.87 25.48-2.88 2.11 2.4-2.48.48.38Z"/>
  <path fill="#FBFCFD" d="m58.87 25.48-2.88 2.11 2.42-1.15.46-.95Z"/>
  <path fill="#455A78" d="m65.31 29.41-2.27 1.63 1.8-1.87.47.24Z"/>
  <path fill="#FFFFFF" d="m65.31 29.41-2.27 1.63 1.83-.9.44-.73Z"/>
  <path fill="#455A78" d="m65.24 27.4-1.34.94.88-.88.46-.07Z"/>
  <path fill="#FFFFFF" d="m65.24 27.4-1.36.95.91-.42.45-.54Z"/>
  <path fill="#354966" d="m34.73 37.06-3.64-1.13a.28.28 0 0 1-.17-.15.32.32 0 0 1-.03-.14v-.81l4.29-10.76a.28.28 0 0 1 .27-.18h3.67a.3.3 0 0 1 .27.18l4.3 10.43.14 1.12a.17.17 0 0 1-.11.18l-3.96 1.22a.28.28 0 0 1-.22-.03.28.28 0 0 1-.14-.17l-.55-1.93H35.7l-.6 1.98a.28.28 0 0 1-.14.18.28.28 0 0 1-.22.01ZM38 31.63l-.68-3.42-.72 3.44 1.4-.02Z"/>
  <path fill="url(#f)" d="m34.73 36.24-3.64-1.13a.28.28 0 0 1-.17-.15.28.28 0 0 1-.01-.23l4.27-11.48a.28.28 0 0 1 .27-.19h3.67c.12 0 .22.07.27.19l4.3 11.25-.08.5-3.85 1.2a.28.28 0 0 1-.22-.03.28.28 0 0 1-.14-.18l-.55-1.93H35.7l-.6 1.99a.28.28 0 0 1-.14.17.28.28 0 0 1-.22.02ZM38 30.8l-.68-3.42-.72 3.45 1.4-.03Z"/>
  <path fill="url(#g)" d="m34.7 35.76-3.3-1.02 4.17-11.18h3.42l4.25 11.1-3.45 1.05-.58-2.1h-3.86l-.65 2.15Zm1.3-4.42 2.54-.05-1.23-6.22-1.3 6.27Z"/>
  <path fill="url(#h)" d="m39.8 35.71 3.44-1.06L39 23.55l.28-.45a.29.29 0 0 1 .12.15l4.3 11.25-.08.5-3.85 1.2a.28.28 0 0 1-.23-.03l.26-.46Z"/>
  <path fill="url(#i)" d="m36.01 31.34 1.32-6.27-.02 2.31-.72 3.45-.58.5Z"/>
  <path fill="#D2DDEE" d="m35.09 34.48-.4 1.28-3.28-1.02.06-.18 3.62-.08Zm8.1.03.05.14-3.45 1.06-.35-1.25c1.27 0 2.52.03 3.75.05Z"/>
  <path fill="#FFFFFF" d="m39 23.56 3.93 10.95-3.14 1.2 3.45-1.06L39 23.55Zm-4.3 12.2.65-2.14h3.86l-4.04-.21-.63 2.01-3.13-.68 3.29 1.02Z"/>
  <path fill="#354966" d="M18.44 27.81c-1.76-.28-3.6.3-3.96 2.8-.32 2.32 1.04 2.87 2.46 3.44 1.33.52 5.82 2.36 5.82 2.36v.8a.29.29 0 0 1-.14.24c-6.35 3.76-12.54 2.1-12.88-4.56-.07-1.3-.04-1.49.01-2.23.13-1.83 2.6-4.92 7-4.92 3.7 0 5.75 1.92 5.63 4.1l-.05.82a.28.28 0 0 1-.11.2.28.28 0 0 1-.23.07l-3.81-.64a.24.24 0 0 1-.18-.11.45.45 0 0 1-.05-.24l-.01-.74.5-1.39Z"/>
  <path fill="url(#j)" d="M18.44 26.99c-1.76-.29-3.6.3-3.96 2.8-.32 2.31.94 3.43 2.46 3.43 1.18 0 2.54-.22 4.3-1.4a.28.28 0 0 1 .26-.03.28.28 0 0 1 .17.2l1.08 4.31a.29.29 0 0 1-.13.32c-6.86 4.07-13.54 1.8-12.84-6.25a9.47 9.47 0 0 1 2.97-6.13 7.75 7.75 0 0 1 5.74-1.9 10 10 0 0 1 4.1 1.2.28.28 0 0 1 .14.26l-.35 6.05a.28.28 0 0 1-.11.2.28.28 0 0 1-.23.07l-3.86-.66a.28.28 0 0 1-.2-.12.29.29 0 0 1-.03-.23l.49-2.12Z"/>
  <path fill="url(#k)" d="m19 26.64-.56 2.42 3.48.59.34-5.74a9.58 9.58 0 0 0-3.8-1.08 7.28 7.28 0 0 0-5.4 1.78 9 9 0 0 0-2.82 5.83c-.26 3.02.55 5.19 2.08 6.44 2.28 1.89 6.08 1.69 9.95-.57l-.98-3.94a7.54 7.54 0 0 1-4.34 1.35c-.91 0-1.73-.34-2.29-1.02-.53-.65-.82-1.63-.64-2.96a3.85 3.85 0 0 1 1.2-2.43 3.63 3.63 0 0 1 2.46-.83c.82 0 1.32.16 1.32.16Z"/>
  <path fill="#FDFDFE" d="m22.26 23.91-.5 5.44-3.31-.3 3.47.6.34-5.74Z"/>
  <path fill="url(#l)" d="M11.78 36.38c.17.18.35.35.54.5 2.28 1.89 6.08 1.69 9.95-.57l-.98-3.94.21-.58a.28.28 0 0 1 .17.2l1.08 4.31a.29.29 0 0 1-.13.32c-4.25 2.53-8.44 2.61-10.84.4v-.65Z"/>
  <path fill="url(#m)" d="m22.26 23.91.43-.28c.03.05.05.1.04.17l-.36 6.05a.28.28 0 0 1-.1.2.28.28 0 0 1-.23.07l-3.86-.66a.28.28 0 0 1-.2-.12l.46-.28 3.48.59.34-5.74Z"/>
  <path fill="#FDFDFE" d="M9.74 30.88a15.86 15.86 0 0 1 .08-.87l4.9-3.08.05.01-5.03 3.94Z"/>
  <path fill="#455A78" d="m9.82 30 .11-.7 4.83-2.4v.03l-4.94 3.08Zm5.94 2.96-3.32 1.93 2.78-2.3c.16.15.34.27.54.37Z"/>
  <path fill="#D2DDEE" d="m21.97 35.1.3 1.21c-3.87 2.26-7.67 2.46-9.96.57a5.13 5.13 0 0 1-.53-.5c2.87-.52 6.32-.96 10.19-1.28Z"/>
  <path fill="#FFFFFF" d="M21.04 32.53a7.43 7.43 0 0 1-4.1 1.19 3.3 3.3 0 0 1-.99-.15l-3.5 1.32 3.31-1.93c.36.18.76.26 1.19.26 1.18 0 2.53-.22 4.29-1.4a.28.28 0 0 1 .26-.03l-.21.58.98 3.94a12.3 12.3 0 0 1-6.03 1.85c1.06 0 3.58-.46 5.7-1.99l-.9-3.64Z"/>
  <path fill="#354966" d="M23.51 36.96v-.82l4.3-3.41 2.9-.12c.09 0 .3-.56.3-.56v.89l-.61 4.16a.29.29 0 0 1-.29.25l-6.32-.1a.27.27 0 0 1-.2-.08.28.28 0 0 1-.08-.2Z"/>
  <path fill="#8397B5" d="m23.51 36.14.3-12.66a.28.28 0 0 1 .1-.2.28.28 0 0 1 .22-.08l4.25.39c.08 0 .14.04.2.1a.4.4 0 0 1 .06.22l-.84 8 2.9-.12a.28.28 0 0 1 .23.1c.06.06.09.14.07.23l-.6 4.15a.29.29 0 0 1-.29.25l-6.32-.09a.27.27 0 0 1-.2-.08.28.28 0 0 1-.08-.21Z"/>
  <path fill="#8397B5" d="m23.98 36 5.98.07.55-3.78-3.23.14.87-8.36-3.88-.36-.29 12.28Z"/>
  <path fill="url(#n)" d="m23.51 36.14.3-12.66a.28.28 0 0 1 .1-.2.28.28 0 0 1 .22-.08l4.25.39c.08 0 .14.04.2.1a.4.4 0 0 1 .06.22l-.84 8 2.9-.12a.28.28 0 0 1 .23.1c.06.06.09.14.07.23l-.6 4.15a.29.29 0 0 1-.29.25l-6.32-.09a.27.27 0 0 1-.2-.08.28.28 0 0 1-.08-.21Z"/>
  <path fill="url(#o)" d="m23.98 36 5.98.07.55-3.78-3.23.14.87-8.36-3.88-.36-.29 12.28Z"/>
  <path fill="url(#p)" d="M30.93 31.88a.28.28 0 0 1 .07.24l-.6 4.16a.29.29 0 0 1-.29.24l-6.32-.09a.28.28 0 0 1-.2-.08l.4-.36 5.97.09.55-3.79.42-.41Z"/>
  <path fill="#D2DDEE" d="m30.18 34.6-.22 1.48-5.98-.09.03-1.05c1.97-.14 4.03-.25 6.17-.33Z"/>
  <path fill="#FFFFFF" d="m23.98 36 5.98.07-5.7-.36.01-12-.29 12.28Z"/>
  <path fill="#354966" d="m43.52 35.6.74-3.5a.28.28 0 0 1 .14-.21.27.27 0 0 1 .25-.01c1.19.5 3.33 1 4.26.59a.47.47 0 0 0 .3-.4c.07-.57-.66-.72-1.69-1.01-2.05-.6-3.16-2.04-3.2-3.64l-.01-.91c2.78-1.56 5.52-1.89 8.2.42l-.09.8a.28.28 0 0 1-.14.22.28.28 0 0 1-.26.01 8.68 8.68 0 0 0-2.38-.73c-.6-.08-1.04-.01-1.07.3-.22 2.04 5.33 1.64 5.33 4.45 0 .51.01 1.13-.03 1.54-.32 3.06-3.5 4.02-6.65 3.78-1.25-.1-2.54-.32-3.5-.64a.28.28 0 0 1-.2-.26v-.8Z"/>
  <path fill="url(#q)" d="m43.52 35.5.74-4.23a.28.28 0 0 1 .14-.2.28.28 0 0 1 .25-.02c1.19.5 3.33 1.01 4.26.6.18-.09.28-.21.3-.4.07-.58-.66-.72-1.69-1.02-2.19-.63-3.31-2.25-3.2-3.98.23-3.62 4.8-3.51 8.26-3.04a.29.29 0 0 1 .25.32l-.33 3.4a.28.28 0 0 1-.14.23.28.28 0 0 1-.27 0 9.24 9.24 0 0 0-2.45-.75c-.6-.08-1.04-.01-1.07.3-.04.3.13.51.73.78 1.3.58 2.64.7 3.69 1.9.77.88 1.01 2.02.88 3.3-.32 3.06-3.5 4.02-6.65 3.79-1.25-.1-2.54-.32-3.5-.65a.29.29 0 0 1-.2-.32Z"/>
  <path fill="url(#r)" d="m44.2 34.36-.2 1.1c.92.29 2.1.48 3.26.57a8.32 8.32 0 0 0 4.14-.6 3.33 3.33 0 0 0 2-2.76c.12-1.14-.07-2.16-.76-2.94-.47-.54-1-.83-1.57-1.06-.63-.25-1.3-.43-1.95-.72-.83-.37-1.03-.73-1.03-1.14 0-.61.56-.98 1.61-.84.7.09 1.61.37 2.36.7l.3-2.99a15.37 15.37 0 0 0-5.02 0c-1.4.32-2.46 1.06-2.56 2.63-.1 1.53.93 2.94 2.87 3.5.67.19 1.22.33 1.55.54.36.24.53.55.48.97a.91.91 0 0 1-.58.78 3.6 3.6 0 0 1-1.8.15c-.9-.1-1.89-.37-2.62-.66l-.48 2.77Z"/>
  <path fill="#FFFFFF" d="M49.7 25.97c.7.09 1.61.37 2.36.7l.29-2.99-.45 2.58-2.2-.3Z"/>
  <path fill="url(#s)" d="M44.4 31.07a.27.27 0 0 1 .25-.02c1.19.5 3.33 1.01 4.26.6.18-.09.28-.21.3-.4a.48.48 0 0 0-.05-.32c-.2-.33-.83-.47-1.64-.7a5.12 5.12 0 0 1-1.77-.88l.38-.27a4.71 4.71 0 0 0 1.52.72c.67.2 1.22.34 1.55.55.36.24.53.55.48.97a.91.91 0 0 1-.58.78 3.6 3.6 0 0 1-1.8.15c-.9-.1-1.89-.37-2.62-.66l-.28-.52Z"/>
  <path fill="#FFFFFF" d="m45.75 29.35 2.22-1.6H48l-1.85 1.89a4.46 4.46 0 0 1-.4-.29Z"/>
  <path fill="#455A78" d="m48 27.75-2.6 1.85v-.55l2.6-1.32v.02Z"/>
  <path fill="url(#t)" d="M53.6 30.37c.28.7.35 1.48.27 2.33-.32 3.05-3.5 4.01-6.65 3.78-1.25-.1-2.54-.32-3.5-.65a.29.29 0 0 1-.17-.13l.46-.24c.91.29 2.1.48 3.25.57a8.33 8.33 0 0 0 4.14-.6 3.33 3.33 0 0 0 2-2.76 4.2 4.2 0 0 0-.22-2.05l.42-.25Z"/>
  <path fill="url(#u)" d="M53.18 30.62a3 3 0 0 0-.54-.9c-.47-.53-1-.82-1.57-1.05-.63-.25-1.3-.43-1.95-.72-.84-.37-1.03-.73-1.03-1.14 0-.61.56-.98 1.61-.84.7.09 1.61.37 2.36.7l.3-2.99.4-.37a.29.29 0 0 1 .07.22l-.33 3.4a.28.28 0 0 1-.14.23.28.28 0 0 1-.27 0 9.23 9.23 0 0 0-2.45-.75c-.6-.08-1.04-.01-1.07.3-.04.3.13.51.73.78 1.3.58 2.64.7 3.69 1.9.26.3.46.63.6.98l-.4.25Z"/>
  <path fill="#455A78" d="m53.6 30.37-5.83 3.48 5.21-3.65.62.17Z"/>
  <path fill="#FDFDFE" d="m53.6 30.37-5.83 3.48 5.55-2.78.28-.7Z"/>
  <path fill="#D2DDEE" d="M52.2 34.92a4.13 4.13 0 0 1-.8.5 8.33 8.33 0 0 1-4.15.61 15.23 15.23 0 0 1-3.24-.57l.16-.92c2.8.07 5.5.2 8.04.38Z"/>
  <path fill="#FDFDFE" d="M44 35.46c.92.29 2.1.48 3.25.57a8.33 8.33 0 0 0 4.15-.6 3.33 3.33 0 0 0 2-2.76c.08-.74.02-1.44-.22-2.05l-.12.07c.9 3.88-2.07 6.3-9.05 4.77Z"/>
  <defs>
    <linearGradient id="a" x1="37.59" x2="37.61" y1="5.23" y2="20.95" gradientUnits="userSpaceOnUse">
      <stop stop-color="#FF1831"/>
      <stop offset="1" stop-color="#FF735C"/>
    </linearGradient>
    <linearGradient id="b" x1="61.01" x2="61.01" y1="39.61" y2="24.2" gradientUnits="userSpaceOnUse">
      <stop stop-color="#A4B8D6"/>
      <stop offset="1" stop-color="#FEFEFE"/>
    </linearGradient>
    <linearGradient id="c" x1="37.66" x2="37.66" y1="37.06" y2="23.06" gradientUnits="userSpaceOnUse">
      <stop stop-color="#C8D6EA"/>
      <stop offset=".22" stop-color="#9CB1D0"/>
      <stop offset=".51" stop-color="#C3D2E8"/>
      <stop offset="1" stop-color="#FFFFFF"/>
    </linearGradient>
    <linearGradient id="d" x1="63.38" x2="63.38" y1="27.05" y2="38.53" gradientUnits="userSpaceOnUse">
      <stop stop-color="#A4B8D6"/>
      <stop offset="1" stop-color="#5D7190"/>
    </linearGradient>
    <linearGradient id="e" x1="61.16" x2="61.16" y1="28.95" y2="24.18" gradientUnits="userSpaceOnUse">
      <stop stop-color="#A4B8D6"/>
      <stop offset="1" stop-color="#FEFEFE"/>
    </linearGradient>
    <linearGradient id="f" x1="43.2" x2="43.2" y1="35.9" y2="23.84" gradientUnits="userSpaceOnUse">
      <stop stop-color="#A4B8D6"/>
      <stop offset="1" stop-color="#FEFEFE"/>
    </linearGradient>
    <linearGradient id="g" x1="37.66" x2="37.66" y1="37.06" y2="23.06" gradientUnits="userSpaceOnUse">
      <stop stop-color="#C8D6EA"/>
      <stop offset=".22" stop-color="#9CB1D0"/>
      <stop offset=".51" stop-color="#C3D2E8"/>
      <stop offset="1" stop-color="#FFFFFF"/>
    </linearGradient>
    <linearGradient id="h" x1="41.29" x2="41.29" y1="24.9" y2="36.04" gradientUnits="userSpaceOnUse">
      <stop stop-color="#A4B8D6"/>
      <stop offset="1" stop-color="#5D7190"/>
    </linearGradient>
    <linearGradient id="i" x1="36.58" x2="36.58" y1="26.98" y2="31.56" gradientUnits="userSpaceOnUse">
      <stop stop-color="#A4B8D6"/>
      <stop offset="1" stop-color="#5D7190"/>
    </linearGradient>
    <linearGradient id="j" x1="22.26" x2="22.26" y1="34.46" y2="23.91" gradientUnits="userSpaceOnUse">
      <stop stop-color="#A4B8D6"/>
      <stop offset="1" stop-color="#FEFEFE"/>
    </linearGradient>
    <linearGradient id="k" x1="37.66" x2="37.66" y1="37.06" y2="23.06" gradientUnits="userSpaceOnUse">
      <stop stop-color="#C8D6EA"/>
      <stop offset=".22" stop-color="#9CB1D0"/>
      <stop offset=".51" stop-color="#C3D2E8"/>
      <stop offset="1" stop-color="#FFFFFF"/>
    </linearGradient>
    <linearGradient id="l" x1="16.39" x2="23.34" y1="35.19" y2="39.75" gradientUnits="userSpaceOnUse">
      <stop stop-color="#A4B8D6"/>
      <stop offset="1" stop-color="#5D7190"/>
    </linearGradient>
    <linearGradient id="m" x1="20.27" x2="20.27" y1="25.19" y2="29.93" gradientUnits="userSpaceOnUse">
      <stop stop-color="#A4B8D6"/>
      <stop offset="1" stop-color="#5D7190"/>
    </linearGradient>
    <linearGradient id="n" x1="30.72" x2="30.72" y1="36.16" y2="23.99" gradientUnits="userSpaceOnUse">
      <stop stop-color="#A4B8D6"/>
      <stop offset="1" stop-color="#FEFEFE"/>
    </linearGradient>
    <linearGradient id="o" x1="37.66" x2="37.66" y1="37.06" y2="23.06" gradientUnits="userSpaceOnUse">
      <stop stop-color="#C8D6EA"/>
      <stop offset=".22" stop-color="#9CB1D0"/>
      <stop offset=".51" stop-color="#C3D2E8"/>
      <stop offset="1" stop-color="#FFFFFF"/>
    </linearGradient>
    <linearGradient id="p" x1="25.41" x2="30.56" y1="31.88" y2="36.89" gradientUnits="userSpaceOnUse">
      <stop stop-color="#A4B8D6"/>
      <stop offset="1" stop-color="#5D7190"/>
    </linearGradient>
    <linearGradient id="q" x1="47.04" x2="47.04" y1="36.51" y2="24.21" gradientUnits="userSpaceOnUse">
      <stop stop-color="#A4B8D6"/>
      <stop offset="1" stop-color="#FEFEFE"/>
    </linearGradient>
    <linearGradient id="r" x1="37.66" x2="37.66" y1="37.06" y2="23.06" gradientUnits="userSpaceOnUse">
      <stop stop-color="#C8D6EA"/>
      <stop offset=".22" stop-color="#9CB1D0"/>
      <stop offset=".51" stop-color="#C3D2E8"/>
      <stop offset="1" stop-color="#FFFFFF"/>
    </linearGradient>
    <linearGradient id="s" x1="46.87" x2="44.63" y1="29.3" y2="31.52" gradientUnits="userSpaceOnUse">
      <stop stop-color="#91A5C3"/>
      <stop offset="1" stop-color="#FEFEFE"/>
    </linearGradient>
    <linearGradient id="t" x1="48.67" x2="48.67" y1="26.99" y2="36.63" gradientUnits="userSpaceOnUse">
      <stop stop-color="#A4B8D6"/>
      <stop offset="1" stop-color="#5D7190"/>
    </linearGradient>
    <linearGradient id="u" x1="52.76" x2="46.42" y1="23.31" y2="25.86" gradientUnits="userSpaceOnUse">
      <stop stop-color="#A4B8D6"/>
      <stop offset="1" stop-color="#5D7190"/>
    </linearGradient>
  </defs>
</svg>
